<svg xmlns="http://www.w3.org/2000/svg" xmlns:xlink="http://www.w3.org/1999/xlink" width="261.555" height="34.688" viewBox="0 0 261.555 34.688">
  <defs>
    <clipPath id="clip-path">
      <path id="Clip_12" data-name="Clip 12" d="M0,34.688H261.555V0H0Z" transform="translate(0 0.312)" fill="none"/>
    </clipPath>
  </defs>
  <g id="Logo" transform="translate(0 -0.312)">
    <path id="Fill_1" data-name="Fill 1" d="M5.976,0H7.87L3.276,5.22,9,11H6.93L1.517,5.567V11H0V0H1.517V5.031Z" transform="translate(49 13)" fill="#315369"/>
    <path id="Fill_2" data-name="Fill 2" d="M0,11H2V0H0Z" transform="translate(65 13)" fill="#315369"/>
    <path id="Fill_3" data-name="Fill 3" d="M0,0H1.448V9.567H6V11H0Z" transform="translate(76 13)" fill="#315369"/>
    <path id="Fill_4" data-name="Fill 4" d="M0,0H1.447V9.567H6V11H0Z" transform="translate(91 13)" fill="#315369"/>
    <path id="Fill_5" data-name="Fill 5" d="M0,11H2V0H0Z" transform="translate(104 13)" fill="#315369"/>
    <path id="Fill_6" data-name="Fill 6" d="M8.532,0H10V11H8.671L1.453,2.528V11H0V0H1.252l7.28,8.544Z" transform="translate(115 13)" fill="#315369"/>
    <g id="Group_21" data-name="Group 21">
      <path id="Fill_7" data-name="Fill 7" d="M6.3,5.642H9.97v4.6a10.072,10.072,0,0,1-4.007.869A5.974,5.974,0,0,1,1.624,9.536,5.184,5.184,0,0,1,0,5.658,5.37,5.37,0,0,1,1.683,1.614,5.848,5.848,0,0,1,5.9,0,7.571,7.571,0,0,1,7.653.2a14.473,14.473,0,0,1,2.1.726V2.507A7.74,7.74,0,0,0,5.869,1.381,4.138,4.138,0,0,0,2.848,2.592,4.014,4.014,0,0,0,1.62,5.565,3.988,3.988,0,0,0,2.848,8.584,4.392,4.392,0,0,0,6.01,9.756a7.428,7.428,0,0,0,2.245-.427L8.4,9.283V7.024H6.3Z" transform="translate(133.548 13.102)" fill="#315369"/>
      <path id="Fill_9" data-name="Fill 9" d="M6.166,0H8.122L3.381,5.146l5.907,5.7H7.151L1.564,5.488v5.356H0V0H1.564V4.96Z" transform="translate(163.091 13.242)" fill="#315369"/>
      <path id="Clip_12-2" data-name="Clip 12" d="M0,34.688H261.555V0H0Z" transform="translate(0 0.312)" fill="none"/>
      <g id="Group_21-2" data-name="Group 21" clip-path="url(#clip-path)">
        <path id="Fill_11" data-name="Fill 11" d="M0,10.843H1.564V0H0Z" transform="translate(180.011 13.242)" fill="#315369"/>
        <path id="Fill_13" data-name="Fill 13" d="M0,0H9.132V1.381H5.321v9.477H3.748V1.381H0Z" transform="translate(189.48 13.227)" fill="#315369"/>
        <path id="Fill_14" data-name="Fill 14" d="M0,0H9.132V1.381H5.321v9.477H3.748V1.381H0Z" transform="translate(205.57 13.227)" fill="#315369"/>
        <path id="Fill_15" data-name="Fill 15" d="M0,0H6.2V1.381H1.564V4.689H6.041V6.077H1.564V9.446H6.346v1.381H0Z" transform="translate(222.591 13.242)" fill="#315369"/>
        <path id="Fill_16" data-name="Fill 16" d="M8.639,0h1.486V10.843H8.78L1.471,2.492v8.351H0V0H1.268L8.639,8.422Z" transform="translate(237.061 13.242)" fill="#315369"/>
        <path id="Fill_17" data-name="Fill 17" d="M3.255,6.439,2.066,5.723A5.39,5.39,0,0,1,.474,4.389,2.513,2.513,0,0,1,0,2.88,2.659,2.659,0,0,1,.9.8,3.371,3.371,0,0,1,3.224,0,4.429,4.429,0,0,1,5.736.763V2.524A3.637,3.637,0,0,0,3.193,1.4a2.117,2.117,0,0,0-1.26.351,1.067,1.067,0,0,0-.493.9,1.383,1.383,0,0,0,.363.913,4.55,4.55,0,0,0,1.168.892l1.2.7a3.473,3.473,0,0,1,2,3.017,2.754,2.754,0,0,1-.881,2.119A3.237,3.237,0,0,1,3,11.107a4.834,4.834,0,0,1-2.95-.988V8.148A3.693,3.693,0,0,0,2.982,9.741a1.852,1.852,0,0,0,1.224-.407,1.27,1.27,0,0,0,.489-1.017q0-.989-1.44-1.878" transform="translate(255.389 13.103)" fill="#315369"/>
        <path id="Fill_18" data-name="Fill 18" d="M7.482,0V.328C6.363.328,5.751.48,5.751,2.323v22.61c0,1.719.459,2.146,1.555,2.146v.329H0v-.329c1.069,0,1.426-.427,1.426-2.146V2.323C1.426.757,1.094.328,0,.328V0Z" transform="translate(0 0.312)" fill="#315369"/>
        <path id="Fill_19" data-name="Fill 19" d="M10.579,16.719A5.657,5.657,0,0,1,9.6,15.7s-.331-.427-3.543-4.683L3.132,7.145c1.085-1.287,2.053-2.338,2.923-3.2C8.3,1.73,9.882.8,11.064.477A3.988,3.988,0,0,1,12.117.328V0h-8.4V.328c3.08.05,1.119,4.241.2,5.225L0,9.922s1.122,1.464,2.572,3.534a15.926,15.926,0,0,0,3.057,3.692,4.43,4.43,0,0,0,2.772.625h4.278v-.328a3.23,3.23,0,0,1-2.1-.725" transform="translate(6.846 9.947)" fill="#315369"/>
        <path id="Fill_20" data-name="Fill 20" d="M16.025,24a5.632,5.632,0,0,1-.98-1.016s-.331-.427-3.543-4.682c-.789-1.046-7.194-9.6-8.369-11.157,1.085-1.286,2.054-2.338,2.923-3.2C8.3,1.731,9.882.8,11.065.478A3.983,3.983,0,0,1,12.117.329V0h-8.4V.329c3.08.049,1.12,4.24.2,5.225L0,9.923s6.567,8.744,8.018,10.814a15.926,15.926,0,0,0,3.057,3.692,4.425,4.425,0,0,0,2.772.625h4.278v-.328a3.23,3.23,0,0,1-2.1-.725" transform="translate(18.251 9.946)" fill="#315369"/>
      </g>
    </g>
  </g>
</svg>
