<svg xmlns="http://www.w3.org/2000/svg" width="36.693" height="34.924" viewBox="0 0 36.693 34.924">
  <g id="Logo" transform="translate(0 -0.314)">
    <path id="Fill_18" data-name="Fill 18" d="M7.548,0V.331C6.419.331,5.8.483,5.8,2.338V25.1c0,1.73.463,2.161,1.568,2.161v.331H0v-.331c1.078,0,1.438-.43,1.438-2.161V2.338C1.438.762,1.1.331,0,.331V0Z" transform="translate(0 0.314)" fill="#315369"/>
    <path id="Fill_19" data-name="Fill 19" d="M10.671,16.833a5.7,5.7,0,0,1-.989-1.023s-.334-.43-3.574-4.714l-2.949-3.9C4.254,5.9,5.23,4.84,6.108,3.975,8.373,1.742,9.968.807,11.161.481a4.03,4.03,0,0,1,1.062-.15V0H3.751V.331c3.107.05,1.129,4.27.205,5.261L0,9.99s1.131,1.474,2.594,3.558a16.042,16.042,0,0,0,3.084,3.717,4.476,4.476,0,0,0,2.8.629h4.315v-.331a3.262,3.262,0,0,1-2.118-.73" transform="translate(6.906 10.015)" fill="#315369"/>
    <path id="Fill_20" data-name="Fill 20" d="M16.165,24.163a5.675,5.675,0,0,1-.989-1.023s-.334-.43-3.574-4.714c-.8-1.053-7.257-9.664-8.442-11.233C4.254,5.9,5.231,4.84,6.108,3.975,8.373,1.742,9.968.807,11.161.481a4.024,4.024,0,0,1,1.062-.15V0H3.751V.331c3.107.049,1.13,4.269.205,5.26L0,9.99s6.625,8.8,8.088,10.887a16.042,16.042,0,0,0,3.084,3.717,4.471,4.471,0,0,0,2.8.629h4.315v-.331a3.262,3.262,0,0,1-2.118-.73" transform="translate(18.411 10.014)" fill="#315369"/>
  </g>
</svg>
